<svg width="444" height="97" viewBox="0 0 444 97" fill="none" xmlns="http://www.w3.org/2000/svg">
<path d="M3.22266 67.1211V66.0957C3.22266 62.222 3.77604 58.6576 4.88281 55.4023C5.98958 52.1146 7.60091 49.2663 9.7168 46.8574C11.8327 44.4486 14.4368 42.5768 17.5293 41.2422C20.6217 39.875 24.1699 39.1914 28.1738 39.1914C32.1777 39.1914 35.7422 39.875 38.8672 41.2422C41.9922 42.5768 44.6126 44.4486 46.7285 46.8574C48.877 49.2663 50.5046 52.1146 51.6113 55.4023C52.7181 58.6576 53.2715 62.222 53.2715 66.0957V67.1211C53.2715 70.9622 52.7181 74.5267 51.6113 77.8145C50.5046 81.0697 48.877 83.918 46.7285 86.3594C44.6126 88.7682 42.0085 90.64 38.916 91.9746C35.8236 93.3092 32.2754 93.9766 28.2715 93.9766C24.2676 93.9766 20.7031 93.3092 17.5781 91.9746C14.4857 90.64 11.8652 88.7682 9.7168 86.3594C7.60091 83.918 5.98958 81.0697 4.88281 77.8145C3.77604 74.5267 3.22266 70.9622 3.22266 67.1211ZM17.2852 66.0957V67.1211C17.2852 69.3346 17.4805 71.4017 17.8711 73.3223C18.2617 75.2428 18.8802 76.9355 19.7266 78.4004C20.6055 79.8327 21.7448 80.9557 23.1445 81.7695C24.5443 82.5833 26.2533 82.9902 28.2715 82.9902C30.2246 82.9902 31.901 82.5833 33.3008 81.7695C34.7005 80.9557 35.8236 79.8327 36.6699 78.4004C37.5163 76.9355 38.1348 75.2428 38.5254 73.3223C38.9486 71.4017 39.1602 69.3346 39.1602 67.1211V66.0957C39.1602 63.9473 38.9486 61.929 38.5254 60.041C38.1348 58.1204 37.5 56.4277 36.6211 54.9629C35.7747 53.4655 34.6517 52.2936 33.252 51.4473C31.8522 50.6009 30.1595 50.1777 28.1738 50.1777C26.1882 50.1777 24.4954 50.6009 23.0957 51.4473C21.7285 52.2936 20.6055 53.4655 19.7266 54.9629C18.8802 56.4277 18.2617 58.1204 17.8711 60.041C17.4805 61.929 17.2852 63.9473 17.2852 66.0957ZM75.9766 51.1055V93H61.8652V40.168H75.0977L75.9766 51.1055ZM74.0234 64.7285H70.1172C70.1172 61.0501 70.5566 57.6647 71.4355 54.5723C72.347 51.4473 73.6654 48.7454 75.3906 46.4668C77.1484 44.1556 79.3132 42.3652 81.8848 41.0957C84.4564 39.8262 87.4349 39.1914 90.8203 39.1914C93.1641 39.1914 95.3125 39.5495 97.2656 40.2656C99.2188 40.9492 100.895 42.0397 102.295 43.5371C103.727 45.002 104.834 46.9225 105.615 49.2988C106.396 51.6426 106.787 54.4583 106.787 57.7461V93H92.7246V59.3086C92.7246 56.8997 92.3991 55.0443 91.748 53.7422C91.097 52.4401 90.1693 51.5286 88.9648 51.0078C87.793 50.487 86.377 50.2266 84.7168 50.2266C82.8939 50.2266 81.2988 50.6009 79.9316 51.3496C78.597 52.0983 77.4902 53.14 76.6113 54.4746C75.7324 55.7767 75.0814 57.3066 74.6582 59.0645C74.235 60.8223 74.0234 62.7103 74.0234 64.7285ZM105.469 63.1172L100.439 63.752C100.439 60.3014 100.863 57.0951 101.709 54.1328C102.588 51.1706 103.874 48.5664 105.566 46.3203C107.292 44.0742 109.424 42.3327 111.963 41.0957C114.502 39.8262 117.432 39.1914 120.752 39.1914C123.291 39.1914 125.602 39.5658 127.686 40.3145C129.769 41.0306 131.543 42.1862 133.008 43.7812C134.505 45.3438 135.645 47.3945 136.426 49.9336C137.24 52.4727 137.646 55.5814 137.646 59.2598V93H123.535V59.2598C123.535 56.8184 123.21 54.9629 122.559 53.6934C121.94 52.3913 121.029 51.4961 119.824 51.0078C118.652 50.487 117.253 50.2266 115.625 50.2266C113.932 50.2266 112.451 50.5684 111.182 51.252C109.912 51.903 108.854 52.8145 108.008 53.9863C107.161 55.1582 106.527 56.5254 106.104 58.0879C105.68 59.6178 105.469 61.2943 105.469 63.1172ZM163.379 40.168V93H149.268V40.168H163.379ZM148.389 26.3984C148.389 24.3477 149.105 22.6549 150.537 21.3203C151.969 19.9857 153.89 19.3184 156.299 19.3184C158.675 19.3184 160.579 19.9857 162.012 21.3203C163.477 22.6549 164.209 24.3477 164.209 26.3984C164.209 28.4492 163.477 30.1419 162.012 31.4766C160.579 32.8112 158.675 33.4785 156.299 33.4785C153.89 33.4785 151.969 32.8112 150.537 31.4766C149.105 30.1419 148.389 28.4492 148.389 26.3984ZM206.201 81.4766V18H220.361V93H207.617L206.201 81.4766ZM172.803 67.2188V66.1934C172.803 62.1569 173.258 58.4948 174.17 55.207C175.081 51.8867 176.416 49.0384 178.174 46.6621C179.932 44.2858 182.096 42.4466 184.668 41.1445C187.24 39.8424 190.169 39.1914 193.457 39.1914C196.549 39.1914 199.251 39.8424 201.562 41.1445C203.906 42.4466 205.892 44.3021 207.52 46.7109C209.18 49.0872 210.514 51.903 211.523 55.1582C212.533 58.3809 213.265 61.9128 213.721 65.7539V68C213.265 71.6784 212.533 75.0964 211.523 78.2539C210.514 81.4115 209.18 84.1784 207.52 86.5547C205.892 88.8984 203.906 90.7214 201.562 92.0234C199.219 93.3255 196.484 93.9766 193.359 93.9766C190.072 93.9766 187.142 93.3092 184.57 91.9746C182.031 90.64 179.883 88.7682 178.125 86.3594C176.4 83.9505 175.081 81.1185 174.17 77.8633C173.258 74.6081 172.803 71.0599 172.803 67.2188ZM186.865 66.1934V67.2188C186.865 69.3997 187.028 71.4342 187.354 73.3223C187.712 75.2103 188.281 76.8867 189.062 78.3516C189.876 79.7839 190.918 80.9069 192.188 81.7207C193.49 82.502 195.068 82.8926 196.924 82.8926C199.333 82.8926 201.318 82.3555 202.881 81.2812C204.443 80.1745 205.632 78.6608 206.445 76.7402C207.292 74.8197 207.78 72.6061 207.91 70.0996V63.7031C207.812 61.6523 207.52 59.8132 207.031 58.1855C206.576 56.5254 205.892 55.1094 204.98 53.9375C204.102 52.7656 202.995 51.8542 201.66 51.2031C200.358 50.5521 198.812 50.2266 197.021 50.2266C195.199 50.2266 193.636 50.6497 192.334 51.4961C191.032 52.3099 189.974 53.4329 189.16 54.8652C188.379 56.2975 187.793 57.9902 187.402 59.9434C187.044 61.8639 186.865 63.9473 186.865 66.1934ZM246.191 40.168V93H232.08V40.168H246.191ZM231.201 26.3984C231.201 24.3477 231.917 22.6549 233.35 21.3203C234.782 19.9857 236.702 19.3184 239.111 19.3184C241.488 19.3184 243.392 19.9857 244.824 21.3203C246.289 22.6549 247.021 24.3477 247.021 26.3984C247.021 28.4492 246.289 30.1419 244.824 31.4766C243.392 32.8112 241.488 33.4785 239.111 33.4785C236.702 33.4785 234.782 32.8112 233.35 31.4766C231.917 30.1419 231.201 28.4492 231.201 26.3984ZM286.328 81.0859V57.5508C286.328 55.8581 286.051 54.4095 285.498 53.2051C284.945 51.9681 284.082 51.0078 282.91 50.3242C281.771 49.6406 280.29 49.2988 278.467 49.2988C276.904 49.2988 275.553 49.5755 274.414 50.1289C273.275 50.6497 272.396 51.4147 271.777 52.4238C271.159 53.4004 270.85 54.556 270.85 55.8906H256.787C256.787 53.6445 257.308 51.5124 258.35 49.4941C259.391 47.4759 260.905 45.7018 262.891 44.1719C264.876 42.6094 267.236 41.3887 269.971 40.5098C272.738 39.6309 275.83 39.1914 279.248 39.1914C283.35 39.1914 286.995 39.875 290.186 41.2422C293.376 42.6094 295.882 44.6602 297.705 47.3945C299.561 50.1289 300.488 53.5469 300.488 57.6484V80.2559C300.488 83.153 300.667 85.5293 301.025 87.3848C301.383 89.2077 301.904 90.8027 302.588 92.1699V93H288.379C287.695 91.5677 287.174 89.7773 286.816 87.6289C286.491 85.4479 286.328 83.2669 286.328 81.0859ZM288.184 60.8223L288.281 68.7812H280.42C278.564 68.7812 276.953 68.9928 275.586 69.416C274.219 69.8392 273.096 70.4414 272.217 71.2227C271.338 71.9714 270.687 72.8503 270.264 73.8594C269.873 74.8685 269.678 75.9753 269.678 77.1797C269.678 78.3841 269.954 79.4746 270.508 80.4512C271.061 81.3952 271.859 82.1439 272.9 82.6973C273.942 83.2181 275.163 83.4785 276.562 83.4785C278.678 83.4785 280.518 83.0553 282.08 82.209C283.643 81.3626 284.847 80.321 285.693 79.084C286.572 77.847 287.028 76.6751 287.061 75.5684L290.771 81.5254C290.251 82.86 289.535 84.2435 288.623 85.6758C287.744 87.1081 286.621 88.459 285.254 89.7285C283.887 90.9655 282.243 91.9909 280.322 92.8047C278.402 93.5859 276.123 93.9766 273.486 93.9766C270.133 93.9766 267.09 93.3092 264.355 91.9746C261.654 90.6074 259.505 88.7357 257.91 86.3594C256.348 83.9505 255.566 81.2161 255.566 78.1562C255.566 75.3893 256.087 72.9316 257.129 70.7832C258.171 68.6348 259.701 66.8281 261.719 65.3633C263.77 63.8659 266.325 62.7428 269.385 61.9941C272.445 61.2129 275.993 60.8223 280.029 60.8223H288.184Z" fill="url(#paint0_linear_423_1861)"/>
<defs>
<linearGradient id="paint0_linear_423_1861" x1="222" y1="-12.3305" x2="222" y2="97" gradientUnits="userSpaceOnUse">
<stop stop-color="#E4F2FF"/>
<stop offset="1" stop-color="#5EB3FF"/>
</linearGradient>
</defs>
</svg>
