<svg width="200" height="200" viewBox="0 0 200 200" fill="none" xmlns="http://www.w3.org/2000/svg">
<path d="M0 100C0 126.522 10.5357 151.957 29.2893 170.711C48.043 189.464 73.4784 200 100 200C126.522 200 151.957 189.464 170.711 170.711C176.733 164.688 181.908 157.976 186.159 150.761C131.386 181.621 87.7063 179.2 55.1204 143.498C43.8284 131.848 37.5 116.25 37.5 100C37.5 83.424 44.0848 67.5268 55.8058 55.8058C67.5269 44.0848 83.424 37.5 100 37.5C116.576 37.5 132.473 44.0848 144.194 55.8058C144.462 56.0736 144.727 56.3436 144.99 56.6158C112.207 20.5138 68.8572 18.3086 13.3972 50C4.69559 65.0726 0 82.2943 0 100Z" fill="url(#paint0_linear_422_1858)"/>
<path d="M200 100C200 73.4784 189.464 48.043 170.711 29.2893C151.957 10.5357 126.522 0 100 0C73.4784 0 48.043 10.5357 29.2893 29.2893C23.0555 35.5231 17.7298 42.4952 13.3972 50C68.8572 18.3086 112.207 20.5138 144.99 56.6158C156.213 68.2537 162.5 83.8027 162.5 100C162.5 116.576 155.915 132.473 144.194 144.194C132.473 155.915 116.576 162.5 100 162.5C83.424 162.5 67.5269 155.915 55.8058 144.194C55.5754 143.964 55.3469 143.732 55.1204 143.498C87.7063 179.2 131.386 181.621 186.159 150.761C195.145 135.508 200 118.004 200 100Z" fill="url(#paint1_linear_422_1858)"/>
<defs>
<linearGradient id="paint0_linear_422_1858" x1="0" y1="100" x2="200" y2="100" gradientUnits="userSpaceOnUse">
<stop stop-color="#329CF3"/>
<stop offset="1" stop-color="#78BFFF"/>
</linearGradient>
<linearGradient id="paint1_linear_422_1858" x1="0" y1="100" x2="200" y2="100" gradientUnits="userSpaceOnUse">
<stop stop-color="#003864"/>
<stop offset="1" stop-color="#3D8ECE"/>
</linearGradient>
</defs>
</svg>
