<svg width="680" height="200" viewBox="0 0 680 200" fill="none" xmlns="http://www.w3.org/2000/svg">
<path d="M0 100C0 126.522 10.5357 151.957 29.2893 170.711C48.043 189.464 73.4784 200 100 200C126.522 200 151.957 189.464 170.711 170.711C176.733 164.688 181.908 157.976 186.159 150.761C131.386 181.621 87.7063 179.2 55.1204 143.498C43.8284 131.848 37.5 116.25 37.5 100C37.5 83.424 44.0848 67.5268 55.8058 55.8058C67.5269 44.0848 83.424 37.5 100 37.5C116.576 37.5 132.473 44.0848 144.194 55.8058C144.462 56.0736 144.727 56.3436 144.99 56.6158C112.207 20.5138 68.8572 18.3086 13.3972 50C4.69559 65.0726 0 82.2943 0 100Z" fill="url(#paint0_linear_414_1853)"/>
<path d="M200 100C200 73.4784 189.464 48.043 170.711 29.2893C151.957 10.5357 126.522 0 100 0C73.4784 0 48.043 10.5357 29.2893 29.2893C23.0555 35.5231 17.7298 42.4952 13.3972 50C68.8572 18.3086 112.207 20.5138 144.99 56.6158C156.213 68.2537 162.5 83.8027 162.5 100C162.5 116.576 155.915 132.473 144.194 144.194C132.473 155.915 116.576 162.5 100 162.5C83.424 162.5 67.5269 155.915 55.8058 144.194C55.5754 143.964 55.3469 143.732 55.1204 143.498C87.7063 179.2 131.386 181.621 186.159 150.761C195.145 135.508 200 118.004 200 100Z" fill="url(#paint1_linear_414_1853)"/>
<path d="M239.223 110.121V109.096C239.223 105.222 239.776 101.658 240.883 98.4023C241.99 95.1146 243.601 92.2663 245.717 89.8574C247.833 87.4486 250.437 85.5768 253.529 84.2422C256.622 82.875 260.17 82.1914 264.174 82.1914C268.178 82.1914 271.742 82.875 274.867 84.2422C277.992 85.5768 280.613 87.4486 282.729 89.8574C284.877 92.2663 286.505 95.1146 287.611 98.4023C288.718 101.658 289.271 105.222 289.271 109.096V110.121C289.271 113.962 288.718 117.527 287.611 120.814C286.505 124.07 284.877 126.918 282.729 129.359C280.613 131.768 278.008 133.64 274.916 134.975C271.824 136.309 268.275 136.977 264.271 136.977C260.268 136.977 256.703 136.309 253.578 134.975C250.486 133.64 247.865 131.768 245.717 129.359C243.601 126.918 241.99 124.07 240.883 120.814C239.776 117.527 239.223 113.962 239.223 110.121ZM253.285 109.096V110.121C253.285 112.335 253.48 114.402 253.871 116.322C254.262 118.243 254.88 119.936 255.727 121.4C256.605 122.833 257.745 123.956 259.145 124.77C260.544 125.583 262.253 125.99 264.271 125.99C266.225 125.99 267.901 125.583 269.301 124.77C270.701 123.956 271.824 122.833 272.67 121.4C273.516 119.936 274.135 118.243 274.525 116.322C274.949 114.402 275.16 112.335 275.16 110.121V109.096C275.16 106.947 274.949 104.929 274.525 103.041C274.135 101.12 273.5 99.4277 272.621 97.9629C271.775 96.4655 270.652 95.2936 269.252 94.4473C267.852 93.6009 266.16 93.1777 264.174 93.1777C262.188 93.1777 260.495 93.6009 259.096 94.4473C257.729 95.2936 256.605 96.4655 255.727 97.9629C254.88 99.4277 254.262 101.12 253.871 103.041C253.48 104.929 253.285 106.947 253.285 109.096ZM311.977 94.1055V136H297.865V83.168H311.098L311.977 94.1055ZM310.023 107.729H306.117C306.117 104.05 306.557 100.665 307.436 97.5723C308.347 94.4473 309.665 91.7454 311.391 89.4668C313.148 87.1556 315.313 85.3652 317.885 84.0957C320.456 82.8262 323.435 82.1914 326.82 82.1914C329.164 82.1914 331.312 82.5495 333.266 83.2656C335.219 83.9492 336.895 85.0397 338.295 86.5371C339.727 88.002 340.834 89.9225 341.615 92.2988C342.396 94.6426 342.787 97.4583 342.787 100.746V136H328.725V102.309C328.725 99.8997 328.399 98.0443 327.748 96.7422C327.097 95.4401 326.169 94.5286 324.965 94.0078C323.793 93.487 322.377 93.2266 320.717 93.2266C318.894 93.2266 317.299 93.6009 315.932 94.3496C314.597 95.0983 313.49 96.14 312.611 97.4746C311.732 98.7767 311.081 100.307 310.658 102.064C310.235 103.822 310.023 105.71 310.023 107.729ZM341.469 106.117L336.439 106.752C336.439 103.301 336.863 100.095 337.709 97.1328C338.588 94.1706 339.874 91.5664 341.566 89.3203C343.292 87.0742 345.424 85.3327 347.963 84.0957C350.502 82.8262 353.432 82.1914 356.752 82.1914C359.291 82.1914 361.602 82.5658 363.686 83.3145C365.769 84.0306 367.543 85.1862 369.008 86.7812C370.505 88.3438 371.645 90.3945 372.426 92.9336C373.24 95.4727 373.646 98.5814 373.646 102.26V136H359.535V102.26C359.535 99.8184 359.21 97.9629 358.559 96.6934C357.94 95.3913 357.029 94.4961 355.824 94.0078C354.652 93.487 353.253 93.2266 351.625 93.2266C349.932 93.2266 348.451 93.5684 347.182 94.252C345.912 94.903 344.854 95.8145 344.008 96.9863C343.161 98.1582 342.527 99.5254 342.104 101.088C341.68 102.618 341.469 104.294 341.469 106.117ZM399.379 83.168V136H385.268V83.168H399.379ZM384.389 69.3984C384.389 67.3477 385.105 65.6549 386.537 64.3203C387.969 62.9857 389.89 62.3184 392.299 62.3184C394.675 62.3184 396.579 62.9857 398.012 64.3203C399.477 65.6549 400.209 67.3477 400.209 69.3984C400.209 71.4492 399.477 73.1419 398.012 74.4766C396.579 75.8112 394.675 76.4785 392.299 76.4785C389.89 76.4785 387.969 75.8112 386.537 74.4766C385.105 73.1419 384.389 71.4492 384.389 69.3984ZM442.201 124.477V61H456.361V136H443.617L442.201 124.477ZM408.803 110.219V109.193C408.803 105.157 409.258 101.495 410.17 98.207C411.081 94.8867 412.416 92.0384 414.174 89.6621C415.932 87.2858 418.096 85.4466 420.668 84.1445C423.24 82.8424 426.169 82.1914 429.457 82.1914C432.549 82.1914 435.251 82.8424 437.562 84.1445C439.906 85.4466 441.892 87.3021 443.52 89.7109C445.18 92.0872 446.514 94.903 447.523 98.1582C448.533 101.381 449.265 104.913 449.721 108.754V111C449.265 114.678 448.533 118.096 447.523 121.254C446.514 124.411 445.18 127.178 443.52 129.555C441.892 131.898 439.906 133.721 437.562 135.023C435.219 136.326 432.484 136.977 429.359 136.977C426.072 136.977 423.142 136.309 420.57 134.975C418.031 133.64 415.883 131.768 414.125 129.359C412.4 126.951 411.081 124.118 410.17 120.863C409.258 117.608 408.803 114.06 408.803 110.219ZM422.865 109.193V110.219C422.865 112.4 423.028 114.434 423.354 116.322C423.712 118.21 424.281 119.887 425.062 121.352C425.876 122.784 426.918 123.907 428.188 124.721C429.49 125.502 431.068 125.893 432.924 125.893C435.333 125.893 437.318 125.355 438.881 124.281C440.443 123.174 441.632 121.661 442.445 119.74C443.292 117.82 443.78 115.606 443.91 113.1V106.703C443.812 104.652 443.52 102.813 443.031 101.186C442.576 99.5254 441.892 98.1094 440.98 96.9375C440.102 95.7656 438.995 94.8542 437.66 94.2031C436.358 93.5521 434.812 93.2266 433.021 93.2266C431.199 93.2266 429.636 93.6497 428.334 94.4961C427.032 95.3099 425.974 96.4329 425.16 97.8652C424.379 99.2975 423.793 100.99 423.402 102.943C423.044 104.864 422.865 106.947 422.865 109.193ZM482.191 83.168V136H468.08V83.168H482.191ZM467.201 69.3984C467.201 67.3477 467.917 65.6549 469.35 64.3203C470.782 62.9857 472.702 62.3184 475.111 62.3184C477.488 62.3184 479.392 62.9857 480.824 64.3203C482.289 65.6549 483.021 67.3477 483.021 69.3984C483.021 71.4492 482.289 73.1419 480.824 74.4766C479.392 75.8112 477.488 76.4785 475.111 76.4785C472.702 76.4785 470.782 75.8112 469.35 74.4766C467.917 73.1419 467.201 71.4492 467.201 69.3984ZM522.328 124.086V100.551C522.328 98.8581 522.051 97.4095 521.498 96.2051C520.945 94.9681 520.082 94.0078 518.91 93.3242C517.771 92.6406 516.29 92.2988 514.467 92.2988C512.904 92.2988 511.553 92.5755 510.414 93.1289C509.275 93.6497 508.396 94.4147 507.777 95.4238C507.159 96.4004 506.85 97.556 506.85 98.8906H492.787C492.787 96.6445 493.308 94.5124 494.35 92.4941C495.391 90.4759 496.905 88.7018 498.891 87.1719C500.876 85.6094 503.236 84.3887 505.971 83.5098C508.738 82.6309 511.83 82.1914 515.248 82.1914C519.35 82.1914 522.995 82.875 526.186 84.2422C529.376 85.6094 531.882 87.6602 533.705 90.3945C535.561 93.1289 536.488 96.5469 536.488 100.648V123.256C536.488 126.153 536.667 128.529 537.025 130.385C537.383 132.208 537.904 133.803 538.588 135.17V136H524.379C523.695 134.568 523.174 132.777 522.816 130.629C522.491 128.448 522.328 126.267 522.328 124.086ZM524.184 103.822L524.281 111.781H516.42C514.564 111.781 512.953 111.993 511.586 112.416C510.219 112.839 509.096 113.441 508.217 114.223C507.338 114.971 506.687 115.85 506.264 116.859C505.873 117.868 505.678 118.975 505.678 120.18C505.678 121.384 505.954 122.475 506.508 123.451C507.061 124.395 507.859 125.144 508.9 125.697C509.942 126.218 511.163 126.479 512.562 126.479C514.678 126.479 516.518 126.055 518.08 125.209C519.643 124.363 520.847 123.321 521.693 122.084C522.572 120.847 523.028 119.675 523.061 118.568L526.771 124.525C526.251 125.86 525.535 127.243 524.623 128.676C523.744 130.108 522.621 131.459 521.254 132.729C519.887 133.965 518.243 134.991 516.322 135.805C514.402 136.586 512.123 136.977 509.486 136.977C506.133 136.977 503.09 136.309 500.355 134.975C497.654 133.607 495.505 131.736 493.91 129.359C492.348 126.951 491.566 124.216 491.566 121.156C491.566 118.389 492.087 115.932 493.129 113.783C494.171 111.635 495.701 109.828 497.719 108.363C499.77 106.866 502.325 105.743 505.385 104.994C508.445 104.213 511.993 103.822 516.029 103.822H524.184Z" fill="url(#paint2_linear_414_1853)"/>
<defs>
<linearGradient id="paint0_linear_414_1853" x1="0" y1="100" x2="200" y2="100" gradientUnits="userSpaceOnUse">
<stop stop-color="#329CF3"/>
<stop offset="1" stop-color="#78BFFF"/>
</linearGradient>
<linearGradient id="paint1_linear_414_1853" x1="0" y1="100" x2="200" y2="100" gradientUnits="userSpaceOnUse">
<stop stop-color="#003864"/>
<stop offset="1" stop-color="#3D8ECE"/>
</linearGradient>
<linearGradient id="paint2_linear_414_1853" x1="458" y1="30.6695" x2="458" y2="140" gradientUnits="userSpaceOnUse">
<stop stop-color="#E4F2FF"/>
<stop offset="1" stop-color="#5EB3FF"/>
</linearGradient>
</defs>
</svg>
